<svg width="56" height="56" viewBox="0 0 56 56" fill="none" xmlns="http://www.w3.org/2000/svg">
<rect x="4" y="4" width="48" height="48" rx="24" fill="#FFDDDD"/>
<rect x="4" y="4" width="48" height="48" rx="24" stroke="#FFF0F0" stroke-width="8"/>
<path d="M25.537 29L23.3299 29.0009C22.9179 30.1656 21.8069 31 20.501 31C18.8441 31 17.501 29.6569 17.501 28C17.501 26.3431 18.8441 25 20.501 25C21.8072 25 22.9185 25.8349 23.3303 27.0001L25.537 27L29.001 21L32.1716 21.0001C32.5835 19.8349 33.6947 19 35.001 19C36.6578 19 38.001 20.3432 38.001 22C38.001 23.6568 36.6578 25 35.001 25C33.6951 25 32.5841 24.1656 32.172 23.0009L30.155 23L27.269 27.999L30.156 33L32.1716 33.0001C32.5835 31.8349 33.6947 31 35.001 31C36.6578 31 38.001 32.3431 38.001 34C38.001 35.6569 36.6578 37 35.001 37C33.6951 37 32.5841 36.1656 32.172 35.0009L29.001 35L25.537 29ZM35.001 33C34.4487 33 34.001 33.4477 34.001 34C34.001 34.5523 34.4487 35 35.001 35C35.5533 35 36.001 34.5523 36.001 34C36.001 33.4477 35.5533 33 35.001 33ZM20.501 27C19.9487 27 19.501 27.4477 19.501 28C19.501 28.5523 19.9487 29 20.501 29C21.0533 29 21.501 28.5523 21.501 28C21.501 27.4477 21.0533 27 20.501 27ZM35.001 21C34.4487 21 34.001 21.4477 34.001 22C34.001 22.5523 34.4487 23 35.001 23C35.5533 23 36.001 22.5523 36.001 22C36.001 21.4477 35.5533 21 35.001 21Z" fill="#FF0000"/>
</svg>
