<svg width="64" height="64" viewBox="0 0 64 64" fill="none" xmlns="http://www.w3.org/2000/svg">
<rect x="4" y="4" width="56" height="56" rx="28" fill="#FFDDDD"/>
<rect x="4" y="4" width="56" height="56" rx="28" stroke="#FFF0F0" stroke-width="8"/>
<path d="M32 21L40.2169 22.826C40.6745 22.9277 41 23.3335 41 23.8022V33.7889C41 35.795 39.9974 37.6684 38.3282 38.7812L32 43L25.6718 38.7812C24.0026 37.6684 23 35.795 23 33.7889V23.8022C23 23.3335 23.3255 22.9277 23.7831 22.826L32 21ZM32 23.0488L25 24.6043V33.7889C25 35.1263 25.6684 36.3752 26.7812 37.1171L32 40.5963L37.2188 37.1171C38.3316 36.3752 39 35.1263 39 33.7889V24.6043L32 23.0488ZM36.4524 28.2218L37.8666 29.636L31.5026 36L27.26 31.7574L28.6742 30.3431L31.5019 33.1709L36.4524 28.2218Z" fill="#FF0000"/>
</svg>
