<svg width="64" height="64" viewBox="0 0 64 64" fill="none" xmlns="http://www.w3.org/2000/svg">
<rect x="4" y="4" width="56" height="56" rx="28" fill="#FFDDDD"/>
<rect x="4" y="4" width="56" height="56" rx="28" stroke="#FFF0F0" stroke-width="8"/>
<path d="M33.2376 28.111L34.8875 29.5252C38.0768 32.2589 38.0768 36.691 34.8875 39.4247L34.4751 39.7782C31.2858 42.5119 26.1149 42.5119 22.9257 39.7782C19.7364 37.0446 19.7364 32.6124 22.9257 29.8787L24.5756 31.293C22.2975 33.2456 22.2975 36.4114 24.5756 38.364C26.8536 40.3166 30.547 40.3166 32.8252 38.364L33.2376 38.0105C35.5156 36.0578 35.5156 32.892 33.2376 30.9394L31.5877 29.5252L33.2376 28.111ZM41.0747 34.1214L39.4248 32.7072C41.7028 30.7545 41.7028 27.5887 39.4248 25.6361C37.1468 23.6835 33.4533 23.6835 31.1753 25.6361L30.7628 25.9897C28.4847 27.9423 28.4847 31.1081 30.7628 33.0607L32.4127 34.4749L30.7628 35.8891L29.1128 34.4749C25.9236 31.7413 25.9236 27.3091 29.1128 24.5754L29.5253 24.2219C32.7146 21.4882 37.8855 21.4882 41.0747 24.2219C44.264 26.9556 44.264 31.3877 41.0747 34.1214Z" fill="#FF0000"/>
</svg>
